<?xml version="1.0" standalone="no"?>
<!DOCTYPE svg PUBLIC "-//W3C//DTD SVG 20010904//EN"
 "http://www.w3.org/TR/2001/REC-SVG-20010904/DTD/svg10.dtd">
<svg version="1.0" xmlns="http://www.w3.org/2000/svg"
 width="923.000000pt" height="350.000000pt" viewBox="0 0 923.000000 350.000000"
 preserveAspectRatio="xMidYMid meet">

<g transform="translate(0.000000,350.000000) scale(0.100000,-0.100000)"
fill="#002244" stroke="none">
<path d="M1685 3304 c-81 -46 -285 -125 -420 -163 -236 -65 -507 -106 -779
-118 l-156 -6 0 -583 c0 -639 5 -712 59 -925 86 -341 243 -626 481 -873 220
-228 466 -385 754 -480 60 -20 118 -36 130 -36 40 0 261 81 366 134 144 71
390 239 390 264 0 4 -34 16 -76 26 -265 61 -571 213 -794 393 -89 72 -267 254
-331 338 -259 339 -396 715 -423 1159 l-5 89 107 -7 c660 -42 1230 -367 1590
-906 50 -76 122 -201 122 -213 0 -4 -35 -7 -79 -7 -225 0 -655 186 -1146 495
-71 45 -136 85 -143 89 -18 11 59 -113 127 -204 72 -97 254 -280 356 -357 195
-147 405 -264 643 -358 182 -71 397 -131 416 -116 20 17 131 237 170 337 19
49 48 141 65 204 62 231 63 248 68 923 l4 617 -85 0 c-406 0 -912 108 -1223
260 -68 33 -124 60 -125 59 -2 0 -30 -16 -63 -35z"/>
<path d="M6340 2599 c-94 -13 -223 -56 -296 -100 -31 -19 -81 -61 -113 -94
-107 -115 -153 -260 -133 -418 20 -163 86 -263 235 -358 107 -69 199 -108 392
-166 295 -88 393 -156 403 -278 8 -103 -53 -188 -168 -231 -64 -24 -262 -25
-348 -1 -93 25 -197 80 -280 149 -56 45 -79 58 -96 54 -29 -7 -216 -199 -216
-222 0 -26 115 -134 204 -193 187 -122 425 -179 661 -160 120 10 202 32 305
81 67 32 101 57 160 117 115 116 160 228 160 396 0 162 -41 257 -158 365 -95
89 -212 147 -482 238 -240 81 -262 90 -316 130 -86 63 -100 186 -31 260 35 38
110 71 188 83 147 23 308 -19 465 -121 33 -22 68 -40 77 -40 20 0 195 197 204
229 5 21 -1 31 -36 61 -190 164 -513 254 -781 219z"/>
<path d="M8025 2599 c-159 -21 -293 -80 -388 -168 -79 -75 -121 -145 -147
-245 -23 -93 -25 -156 -6 -247 29 -135 94 -224 227 -309 110 -70 186 -103 389
-165 217 -67 333 -123 374 -182 60 -86 43 -199 -41 -272 -68 -61 -125 -76
-273 -75 -109 0 -135 4 -205 28 -100 34 -172 75 -252 143 -34 29 -70 53 -79
53 -25 0 -224 -199 -224 -224 0 -28 112 -134 204 -195 138 -90 302 -145 476
-159 271 -23 499 45 646 192 115 115 164 236 164 408 0 154 -44 254 -160 361
-94 87 -215 145 -491 238 -232 78 -256 88 -310 130 -46 36 -69 84 -69 144 0
104 81 173 231 196 148 23 308 -19 466 -122 34 -23 70 -39 80 -37 24 5 203
214 203 238 0 54 -260 201 -433 245 -113 28 -275 39 -382 24z"/>
<path d="M3790 2544 c-6 -15 -9 -95 -8 -182 l3 -156 390 3 c442 3 493 -3 625
-67 106 -51 224 -169 272 -272 20 -41 42 -100 49 -130 18 -76 16 -241 -4 -319
-43 -163 -160 -307 -309 -381 -121 -59 -186 -70 -435 -70 l-213 0 0 450 0 450
-187 -2 -188 -3 -3 -602 c-1 -386 1 -611 8 -628 l10 -26 447 4 c422 3 452 5
524 25 340 96 591 324 695 629 41 121 54 199 54 328 0 416 -259 772 -668 919
-140 50 -209 56 -649 56 l-403 0 -10 -26z"/>
</g>
</svg>
